<svg width="32" height="32" viewBox="0 0 32 32" fill="none" xmlns="http://www.w3.org/2000/svg">
<path d="M0.0104324 1.02308C0.0730268 1.01264 0.0625944 0.96044 0.0730268 0.918681C0.312972 0.302747 0.761565 0 1.42924 0C1.42924 0 11.966 0 13.7603 0C14.6367 0 15.2 0.553297 15.2 1.43022C15.2 5.54341 15.2 9.65659 15.2 13.7698C15.2 14.6467 14.6367 15.2 13.7603 15.2C9.6604 15.2 5.5709 15.2 1.47097 15.2C0.7407 15.2 0.333837 14.9181 0.052162 14.2291C0.0417296 14.1978 0.0312972 14.1769 0 14.1665C0.0104324 9.78187 0.0104324 5.40769 0.0104324 1.02308Z" fill="#272976"/>
<path d="M16.8105 1.02308C16.8731 1.01264 16.8626 0.96044 16.8731 0.918681C17.113 0.302747 17.5616 0 18.2293 0C18.2293 0 28.766 0 30.5604 0C31.4367 0 32.0001 0.553297 32.0001 1.43022C32.0001 5.54341 32.0001 9.65659 32.0001 13.7698C32.0001 14.6467 31.4367 15.2 30.5604 15.2C26.4605 15.2 22.3709 15.2 18.271 15.2C17.5407 15.2 17.1339 14.9181 16.8522 14.2291C16.8418 14.1978 16.8313 14.1769 16.8 14.1665C16.8105 9.78187 16.8105 5.40769 16.8105 1.02308Z" fill="#272976"/>
<path d="M0.0104324 17.8231C0.0730268 17.8127 0.0625944 17.7605 0.0730268 17.7187C0.312972 17.1028 0.761565 16.8 1.42924 16.8C1.42924 16.8 11.966 16.8 13.7603 16.8C14.6367 16.8 15.2 17.3533 15.2 18.2303C15.2 22.3435 15.2 26.4566 15.2 30.5698C15.2 31.4468 14.6367 32.0001 13.7603 32.0001C9.6604 32.0001 5.5709 32.0001 1.47097 32.0001C0.7407 32.0001 0.333837 31.7182 0.052162 31.0292C0.0417296 30.9979 0.0312972 30.977 0 30.9665C0.0104324 26.5819 0.0104324 22.2077 0.0104324 17.8231Z" fill="#272976"/>
<path d="M16.8105 17.8231C16.8731 17.8127 16.8626 17.7605 16.8731 17.7187C17.113 17.1028 17.5616 16.8 18.2293 16.8C18.2293 16.8 28.766 16.8 30.5604 16.8C31.4367 16.8 32.0001 17.3533 32.0001 18.2303C32.0001 22.3435 32.0001 26.4566 32.0001 30.5698C32.0001 31.4468 31.4367 32.0001 30.5604 32.0001C26.4605 32.0001 22.3709 32.0001 18.271 32.0001C17.5407 32.0001 17.1339 31.7182 16.8522 31.0292C16.8418 30.9979 16.8313 30.977 16.8 30.9665C16.8105 26.5819 16.8105 22.2077 16.8105 17.8231Z" fill="#FF4086"/>
</svg>
